<?xml version="1.0" encoding="UTF-8"?>
<svg version="1.1" viewBox="0 0 2048 877" width="763" height="327" xmlns="http://www.w3.org/2000/svg">
<path transform="translate(1187,49)" d="m0 0h213l10 24 17 48 20 55 11 29 13 37 4 18 14 39 13 33 10 28 1 4-1 1h-117l-3-5-9-24-8-22-9-24-13-37-9-28-3-14-7-20-8-21-15-43-12-34-2-2v273l-1 1h-18l-1-299-92-1 1-15z"/>
<path transform="translate(1823,49)" d="m0 0h213l1 1v14l-1 1-91 1v298l-1 1h-112l-1-1v-151l1-126 1-3-2 1-16 45-18 52-6 15-18 52-15 43-10 27-8 22-8 24h-19l1-5 12-35 4-16 15-44 26-74 7-18 11-31 10-29 15-44 7-18z"/>
<path transform="translate(118,49)" d="m0 0h130l76 1v14l-1 1-98 1v298l-1 1h-112l-1-5v-294l-99-1v-13l1-2z"/>
<path transform="translate(757,38)" d="m0 0h11l5 10 13 37 27 82 9 26 10 30 5 22 20 61 9 24 10 30 1 5h-122l-4-9-14-41-7-18-20-60-3 9-4 19-12 36-12 34-10 30h-16l-6-1 12-36 14-39 14-43 15-46 7-26 12-37 12-36 14-41 7-18z"/>
<path transform="translate(155,572)" d="m0 0h33l36 1 1 239 99 1v15l-53 1h-39l-220-1v-15l49-1 50 1v-198l1-42z"/>
<path transform="translate(1832,573)" d="m0 0h112l1 101v138l92 1v15l-40 1h-164l-97-1v-8l1-7 3-1 91 1z"/>
<path transform="translate(943,572)" d="m0 0 4 1 4 9 9 30 6 25 15 46 1 6h-120l-6-16-20-60-4-18-3-9h-236l-2 9-13 41-3 16-12 36-15 44-14 43-12 36 1 1h90l46 1v15h-258l-1-1v-11l1-4h90l9-1 12-36 13-40 12-36 11-30 16-49 9-28 2-8 1-10 1-1z"/>
<path transform="translate(1532,572)" d="m0 0h56l3 3 9 27 3 14 10 29 4-10 14-40 7-21 1-1h21l-3 10-14 40-10 29-12 34-9 24-11 33-2 12-19 55-8 19h-11l-5-2-10-24-16-47-14-40-10-27-9-24-21-61-4-12-2-12-2-7z"/>
<path transform="translate(824,383)" d="m0 0h91l17 3 13 5 9 5 7 6 11 16 5 12 2 8v19l-4 16-6 11-10 13-10 6-4 3 13 19 9 17 13 18 2 3-1 1h-41l-5-5-16-23-15-22-40-1 1 50-1 1h-39l-1-1zm40 35v61h44l13-3 8-5 6-7 3-7 1-5v-10l-6-12-8-7-11-4-4-1z"/>
<path transform="translate(236,383)" d="m0 0h43v70h81v-70h43v180l-1 1h-41l-1-1v-74h-81v74l-8 1h-34l-1-1z" fill="#020202"/>
<path transform="translate(591,383)" d="m0 0h44l18 41 8 17 7 14 32 72 5 14 7 19 2 4h-43l-5-11-10-26-1-1h-83l-12 31-3 6-2 1h-26l-17-1 9-19 18-40 17-38 11-25 8-16 2-9zm20 44-7 16-6 13-11 27-3 7v3h57l1-2-24-56-4-8z"/>
<path transform="translate(1092,383)" d="m0 0h153v26l-4 7-13 15-7 8h-2l-2 5-8 11-13 15-8 10-9 11-11 13-8 10-11 13-1 2 100 1 1 1v15l-1 17-92 1h-65l-1-1v-26l7-9 11-13 9-11 12-14 8-10 11-13 9-11 12-14 10-10 7-9 4-5h-98z" fill="#010101"/>
<path transform="translate(1706,382)" d="m0 0 150 1v30l-10 13-13 14-5 5-13 15-8 10-11 13-11 14-12 14-9 11-6 8h101v34h-155l-1-1v-25l4-6 12-14 8-11 4-7 12-14 8-10 12-14 8-10 9-10 5-5 14-16 2-4-42 1h-54v-35z" fill="#010101"/>
<path transform="translate(896,789)" d="m0 0h121l3 9 3 11v3h101l1 1v15l-35 1h-302l-3-1v-15l1-1h118l-7-20z" fill="#020202"/>
<path transform="translate(1540,383)" d="m0 0h43v181h-43z"/>
<path transform="translate(1364,383)" d="m0 0h43v180l-2 1h-14l-27-1z"/>
<path transform="translate(1279,788)" d="m0 0 18 1v23h34l58 1v15l-43 1h-154l-7-1v-15l1-1h92v-23z" fill="#080808"/>
<path transform="translate(1278,573)" d="m0 0h19v116h-19z"/>
<path transform="translate(1088,714)" d="m0 0h6l-2 5-8 11-8 9 1 4 11 15 5 9 3 4v2h-9l-5-3-8-8-7-8-5-3-2 4-2 5-1 12h-13v-57h13v25l8-7 15-15z" fill="#010101"/>
<path transform="translate(869,714)" d="m0 0h7l5 5 9 21 12 27 2 6h-13l-4-6-3-6h-26l-4 10-1 1h-13l1-5 18-40 6-12zm1 15-6 16-1 5h17l-3-10-4-10z" fill="#020202"/>
<path transform="translate(1262,714)" d="m0 0 7 1 4 5 17 38 6 13v2h-9l-7-2-3-10h-27l-5 11h-13l1-5 18-40 5-10 2-2zm1 14-5 12-3 7v3h17l-3-10-5-12z" fill="#020202"/>
<path transform="translate(965,758)" d="m0 0h8l3 2 1 7-3 5-6 1-5-3-1-2v-7z" fill="#010101"/>
<path transform="translate(1161,758)" d="m0 0h8l4 5-1 6-3 3-5 1-5-3-1-9z" fill="#080808"/>
</svg>
